<svg width="468" height="210" viewBox="0 0 468 210" fill="none" xmlns="http://www.w3.org/2000/svg">
<path d="M292.375 168.625V184.375C292.375 185.618 293.382 186.625 294.625 186.625H310.375C311.618 186.625 312.625 185.618 312.625 184.375V168.625C312.625 167.382 311.618 166.375 310.375 166.375H294.625C293.382 166.375 292.375 167.382 292.375 168.625ZM304.374 177.007H301.992V184.375H300.071V177.007H297.738V175.375H304.374V177.007ZM304.748 183.954V181.984C304.748 181.984 305.823 182.796 307.115 182.796C308.406 182.796 308.356 181.952 308.356 181.836C308.356 180.611 304.698 180.611 304.698 177.897C304.698 174.206 310.027 175.663 310.027 175.663L309.961 177.417C309.961 177.417 309.068 176.821 308.058 176.821C307.048 176.821 306.684 177.301 306.684 177.814C306.684 179.138 310.375 179.005 310.375 181.671C310.375 185.775 304.748 183.954 304.748 183.954Z" fill="#808080" fill-opacity="0.12"/>
<path d="M102.963 39.75C102.787 39.75 102.625 39.8915 102.625 40.0884V46.2715L101.223 45.4541C101.135 45.4024 101.036 45.3772 100.938 45.3772C100.839 45.3772 100.74 45.4024 100.652 45.4541L97.2834 47.4185C97.1079 47.5197 97 47.7071 97 47.9084V51.8416C97 52.0441 97.1079 52.2303 97.2834 52.3315L100.652 54.2959C100.74 54.3476 100.839 54.3728 100.938 54.3728C101.036 54.3728 101.135 54.3476 101.223 54.2959L104.592 52.3315C104.767 52.2303 104.875 52.0429 104.875 51.8416V49.875V47.9084V41.1343C104.875 40.934 104.768 40.7499 104.596 40.6487L103.13 39.7961C103.075 39.7646 103.02 39.75 102.963 39.75ZM91.9375 45.3772C91.8388 45.3772 91.7402 45.4029 91.6519 45.4541L88.2834 47.4185C88.1079 47.5197 88 47.7071 88 47.9084V51.8416C88 52.0441 88.1079 52.2303 88.2834 52.3315L91.6519 54.2959C91.8285 54.3983 92.0465 54.3983 92.2231 54.2959L95.5916 52.3315C95.7671 52.2303 95.875 52.0429 95.875 51.8416V47.9084C95.875 47.7059 95.7671 47.5197 95.5916 47.4185L92.2231 45.4541C92.1348 45.4029 92.0362 45.3772 91.9375 45.3772ZM109.938 45.3772C109.839 45.3772 109.74 45.4024 109.652 45.4541L106.283 47.4185C106.108 47.5197 106 47.7071 106 47.9084V51.8416C106 52.0441 106.108 52.2303 106.283 52.3315L109.551 54.3069C109.726 54.4138 109.947 54.4148 110.124 54.3113L111.73 53.3774C111.897 53.2818 111.898 53.0403 111.73 52.9424L108.25 50.8923V48.873L109.938 47.8909L111.625 48.873V50.2793C111.625 50.4672 111.783 50.4961 111.889 50.4331C112.314 50.1834 113.596 49.4399 113.596 49.4399C113.768 49.3398 113.875 49.1546 113.875 48.9543V47.9084C113.875 47.7059 113.767 47.5197 113.592 47.4185L110.223 45.4541C110.134 45.4024 110.036 45.3772 109.938 45.3772ZM82.9375 45.3794C82.8385 45.3794 82.7396 45.4045 82.6519 45.4563L79.2834 47.4185C79.1079 47.5208 79 47.7081 79 47.9106V52.9314C79 53.1766 79.2653 53.3287 79.4768 53.2061L80.9709 52.3359C81.1431 52.2347 81.25 52.0506 81.25 51.8503V48.8774L82.9375 47.8931L84.625 48.8774V51.8503C84.625 52.0506 84.7319 52.2347 84.9041 52.3359L86.3982 53.2061C86.6097 53.3298 86.875 53.1766 86.875 52.9314V47.9106C86.875 47.7081 86.7671 47.5208 86.5916 47.4185L83.2231 45.4563C83.1354 45.4045 83.0365 45.3794 82.9375 45.3794ZM100.938 47.8909L102.625 48.8752V49.875V50.8748L100.938 51.8591L99.25 50.8748V48.8752L100.938 47.8909ZM109.938 48.7544L108.973 49.3169V50.4397L109.938 51L110.902 50.4397V49.3169L109.938 48.7544ZM96.332 53.2478C96.2163 53.2478 96.0993 53.2761 95.998 53.3335L92.834 55.1616C92.6259 55.2764 92.5 55.5022 92.5 55.7373V59.3892C92.5 59.6243 92.6315 59.8456 92.834 59.9648L93.6667 60.4395C94.0661 60.6363 94.2129 60.6372 94.394 60.6372C94.9903 60.6372 95.3301 60.2806 95.3301 59.6506V56.0427C95.3301 55.9876 95.2873 55.9482 95.2378 55.9482H94.8379C94.7828 55.9482 94.7434 55.9932 94.7434 56.0427V59.6506C94.7434 59.924 94.4545 60.2044 93.9832 59.9692L93.1174 59.4705C93.0893 59.4536 93.0691 59.4196 93.0691 59.387V55.7351C93.0691 55.7025 93.0848 55.6641 93.1174 55.6472L96.2815 53.8235C96.3152 53.8066 96.3534 53.8066 96.3804 53.8235L99.5466 55.6472C99.5793 55.6641 99.595 55.6969 99.595 55.7351V59.387C99.595 59.4252 99.5736 59.458 99.5466 59.4749L96.3804 61.3052C96.3522 61.3221 96.3085 61.3221 96.2815 61.3052L95.4729 60.824C95.4515 60.8127 95.4174 60.8061 95.396 60.8174C95.1721 60.949 95.1273 60.9662 94.9192 61.0371C94.8641 61.054 94.7891 61.0878 94.9478 61.1755L95.998 61.7996C96.1027 61.8547 96.2173 61.8875 96.332 61.8875C96.4524 61.8875 96.5694 61.8548 96.6616 61.7952L99.8257 59.9648C100.034 59.8501 100.16 59.6243 100.16 59.3892V55.7373C100.16 55.5022 100.028 55.282 99.8257 55.1616L96.6616 53.3335C96.5632 53.2761 96.4478 53.2478 96.332 53.2478ZM101.267 54.9331C100.944 54.9331 100.661 55.1942 100.661 55.5396C100.661 55.8737 100.933 56.1482 101.267 56.1482C101.601 56.1482 101.874 55.8737 101.874 55.5396C101.874 55.1942 101.596 54.9275 101.267 54.9331ZM101.26 55.0298C101.546 55.0298 101.777 55.2549 101.777 55.5396C101.777 55.8186 101.545 56.0492 101.26 56.0559C100.98 56.0559 100.753 55.8242 100.753 55.5396C100.753 55.2549 100.981 55.0298 101.26 55.0298ZM101.039 55.1946V55.8779H101.168V55.6055H101.289C101.339 55.6055 101.35 55.6265 101.362 55.6648C101.362 55.6704 101.382 55.8475 101.388 55.8801H101.529C101.513 55.8475 101.501 55.754 101.496 55.6978C101.48 55.61 101.475 55.5496 101.381 55.5439C101.431 55.5271 101.513 55.5008 101.513 55.3748C101.513 55.1936 101.356 55.1946 101.274 55.1946H101.039ZM101.168 55.3044H101.278C101.312 55.3044 101.377 55.3034 101.377 55.3967C101.377 55.435 101.36 55.4967 101.271 55.4956H101.168V55.3044ZM97.1802 55.8625C96.2768 55.8625 95.741 56.2476 95.741 56.8821C95.741 57.5773 96.2777 57.7633 97.1428 57.8511C98.1778 57.9546 98.259 58.1034 98.259 58.3059C98.259 58.6614 97.9737 58.8091 97.3054 58.8091C96.4673 58.8091 96.2829 58.6013 96.2222 58.1851C96.2165 58.1412 96.1772 58.1082 96.1277 58.1082H95.7168C95.6673 58.1082 95.6245 58.1475 95.6245 58.2026C95.6245 58.7336 95.914 59.3694 97.2988 59.3694C98.3147 59.3683 98.8896 58.9747 98.8896 58.2839C98.8896 57.5999 98.4291 57.418 97.4548 57.2864C96.4693 57.1548 96.3716 57.0885 96.3716 56.8579C96.3716 56.6667 96.4523 56.4163 97.1802 56.4163C97.8316 56.4163 98.0743 56.5587 98.1733 56.9963C98.1846 57.0402 98.2152 57.0667 98.259 57.0667H98.6699C98.6969 57.0667 98.7201 57.056 98.7358 57.0403C98.7527 57.0189 98.7634 56.997 98.7578 56.97C98.6926 56.214 98.1938 55.8625 97.1802 55.8625Z" fill="#808080" fill-opacity="0.12"/>
<path d="M445 109.28C442.403 109.28 440.64 109.9 439.52 110.8C438.4 111.7 437.96 112.857 437.96 113.82V116.96H444.36V117.6H434.82C433.65 117.6 432.463 118.107 431.62 119.18C430.778 120.252 430.28 121.852 430.28 124C430.28 126.147 430.778 127.747 431.62 128.82C432.463 129.892 433.65 130.4 434.82 130.4H437.96V134.18C437.96 135.142 438.4 136.3 439.52 137.2C440.64 138.1 442.403 138.72 445 138.72C447.598 138.72 449.36 138.1 450.48 137.2C451.6 136.3 452.04 135.142 452.04 134.18V131.04H445.64V130.4H455.18C456.35 130.4 457.538 129.892 458.38 128.82C459.223 127.747 459.72 126.147 459.72 124C459.72 121.852 459.223 120.252 458.38 119.18C457.538 118.107 456.35 117.6 455.18 117.6H452.04V113.82C452.04 112.832 451.603 111.672 450.48 110.78C449.358 109.887 447.595 109.28 445 109.28ZM445 110.56C447.398 110.56 448.85 111.12 449.68 111.78C450.51 112.44 450.76 113.207 450.76 113.82V121.44C450.76 122.5 449.9 123.36 448.84 123.36H441.16C439.843 123.36 438.708 124.172 438.22 125.32C438.138 125.51 438.063 125.712 438.02 125.92C437.978 126.127 437.96 126.34 437.96 126.56V129.12H434.82C434.008 129.12 433.255 128.802 432.64 128.02C432.025 127.237 431.56 125.947 431.56 124C431.56 122.052 432.025 120.762 432.64 119.98C433.255 119.197 434.008 118.88 434.82 118.88H445.64V115.68H439.24V113.82C439.24 113.247 439.488 112.467 440.32 111.8C441.153 111.132 442.605 110.56 445 110.56ZM441.8 112.48C441.095 112.48 440.52 113.055 440.52 113.76C440.52 114.465 441.095 115.04 441.8 115.04C442.505 115.04 443.08 114.465 443.08 113.76C443.08 113.055 442.505 112.48 441.8 112.48ZM452.04 118.88H455.18C455.993 118.88 456.745 119.197 457.36 119.98C457.975 120.762 458.44 122.052 458.44 124C458.44 125.947 457.975 127.237 457.36 128.02C456.745 128.802 455.993 129.12 455.18 129.12H444.36V132.32H450.76V134.18C450.76 134.752 450.513 135.532 449.68 136.2C448.848 136.867 447.395 137.44 445 137.44C442.605 137.44 441.153 136.867 440.32 136.2C439.488 135.532 439.24 134.752 439.24 134.18V126.56C439.24 126.427 439.255 126.305 439.28 126.18C439.46 125.305 440.233 124.64 441.16 124.64H448.84C450.598 124.64 452.04 123.197 452.04 121.44V118.88ZM448.2 132.96C447.495 132.96 446.92 133.535 446.92 134.24C446.92 134.945 447.495 135.52 448.2 135.52C448.905 135.52 449.48 134.945 449.48 134.24C449.48 133.535 448.905 132.96 448.2 132.96Z" fill="#808080" fill-opacity="0.12"/>
<path d="M354.5 8.88C349.696 8.88 345.34 9.88593 342.122 11.5654C338.905 13.2448 336.74 15.6643 336.74 18.5C336.74 21.3357 338.905 23.7552 342.122 25.4346C345.34 27.1141 349.696 28.12 354.5 28.12C359.304 28.12 363.66 27.1141 366.878 25.4346C370.095 23.7552 372.26 21.3357 372.26 18.5C372.26 15.6643 370.095 13.2448 366.878 11.5654C363.66 9.88593 359.304 8.88 354.5 8.88ZM354.5 10.36C359.096 10.36 363.25 11.3399 366.193 12.8777C369.135 14.4127 370.78 16.4303 370.78 18.5C370.78 20.5697 369.135 22.5873 366.193 24.1223C363.25 25.6601 359.096 26.64 354.5 26.64C349.904 26.64 345.75 25.6601 342.807 24.1223C339.865 22.5873 338.22 20.5697 338.22 18.5C338.22 16.4303 339.865 14.4127 342.807 12.8777C345.75 11.3399 349.904 10.36 354.5 10.36ZM352.656 11.84L350.8 20.72H352.742L353.679 16.28H355.231C355.726 16.28 356.055 16.3609 356.208 16.5257C356.359 16.6905 356.39 17.0027 356.304 17.4507L355.596 20.72H357.567L358.336 17.1848C358.501 16.3378 358.376 15.7163 357.966 15.3377C357.547 14.9532 356.81 14.8 355.711 14.8H353.98L354.595 11.84H352.656ZM344.14 14.8L342.64 22.94H344.597L344.987 20.72H346.207C348.756 20.72 350.144 20.1303 350.661 17.9421C351.106 16.0603 349.967 14.8 348.086 14.8H344.14ZM359.68 14.8L358.18 22.94H360.137L360.527 20.72H361.747C364.296 20.72 365.684 20.1303 366.201 17.9421C366.646 16.0603 365.507 14.8 363.626 14.8H359.68ZM345.822 16.28H347.346C348.612 16.28 348.878 16.8495 348.811 17.4825C348.641 19.1157 347.623 19.24 346.531 19.24H345.262L345.822 16.28ZM361.362 16.28H362.886C364.152 16.28 364.418 16.8495 364.351 17.4825C364.181 19.1157 363.163 19.24 362.071 19.24H360.802L361.362 16.28Z" fill="#808080" fill-opacity="0.12"/>
<path d="M44.8444 186.828C44.7862 186.828 44.7717 186.799 44.8008 186.755L45.1061 186.359C45.1352 186.315 45.2079 186.285 45.266 186.285H50.4562C50.5143 186.285 50.5289 186.329 50.4998 186.373L50.2526 186.755C50.2236 186.799 50.1509 186.843 50.1073 186.843L44.8444 186.828Z" fill="#808080" fill-opacity="0.12"/>
<path d="M42.6491 188.177C42.591 188.177 42.5764 188.148 42.6055 188.104L42.9108 187.708C42.9399 187.664 43.0126 187.635 43.0707 187.635H49.7002C49.7583 187.635 49.7874 187.679 49.7729 187.723L49.6566 188.075C49.642 188.133 49.5839 188.163 49.5257 188.163L42.6491 188.177Z" fill="#808080" fill-opacity="0.12"/>
<path d="M46.1674 189.527C46.1092 189.527 46.0947 189.483 46.1238 189.439L46.3273 189.072C46.3564 189.028 46.4145 188.984 46.4727 188.984H49.3803C49.4385 188.984 49.4676 189.028 49.4676 189.087L49.4385 189.439C49.4385 189.497 49.3803 189.541 49.3367 189.541L46.1674 189.527Z" fill="#808080" fill-opacity="0.12"/>
<path d="M61.2582 186.564C60.3422 186.799 59.7171 186.975 58.8157 187.209C58.5976 187.268 58.5831 187.283 58.3941 187.063C58.176 186.813 58.0161 186.652 57.7108 186.505C56.7949 186.051 55.9081 186.183 55.0794 186.725C54.0908 187.371 53.5819 188.324 53.5965 189.512C53.611 190.685 54.4106 191.653 55.5591 191.815C56.5477 191.947 57.3764 191.595 58.0306 190.847C58.1615 190.685 58.2778 190.509 58.4232 190.304C57.8998 190.304 57.2456 190.304 55.6173 190.304C55.312 190.304 55.2393 190.113 55.3411 189.864C55.5301 189.409 55.879 188.647 56.0825 188.265C56.1261 188.177 56.2279 188.031 56.446 188.031C57.1874 188.031 59.9206 188.031 61.7379 188.031C61.7088 188.427 61.7088 188.823 61.6507 189.219C61.4908 190.275 61.0982 191.243 60.4585 192.093C59.4118 193.487 58.0452 194.352 56.3151 194.587C54.8904 194.777 53.5674 194.499 52.4043 193.619C51.3285 192.797 50.7179 191.712 50.558 190.363C50.369 188.764 50.8342 187.327 51.7937 186.065C52.8259 184.701 54.1925 183.836 55.8644 183.528C57.231 183.279 58.5395 183.44 59.7171 184.247C60.4876 184.76 61.0401 185.464 61.4035 186.315C61.4908 186.447 61.4326 186.52 61.2582 186.564Z" fill="#808080" fill-opacity="0.12"/>
<path d="M66.0703 194.675C64.7473 194.645 63.5407 194.264 62.523 193.384C61.6652 192.636 61.1273 191.683 60.9528 190.553C60.6912 188.896 61.1418 187.429 62.1304 186.124C63.1917 184.716 64.4711 183.983 66.2012 183.675C67.6841 183.411 69.0798 183.557 70.3446 184.423C71.4931 185.215 72.2055 186.285 72.3945 187.693C72.6416 189.673 72.0746 191.287 70.7226 192.665C69.7631 193.648 68.5855 194.264 67.2334 194.543C66.8409 194.616 66.4483 194.631 66.0703 194.675ZM69.5304 188.749C69.5159 188.559 69.5159 188.412 69.4868 188.265C69.2251 186.813 67.9022 185.992 66.521 186.315C65.169 186.623 64.2967 187.488 63.9768 188.867C63.7151 190.011 64.2676 191.169 65.3143 191.639C66.1139 191.991 66.9135 191.947 67.6841 191.551C68.8326 190.949 69.4578 190.011 69.5304 188.749Z" fill="#808080" fill-opacity="0.12"/>
<path d="M215.121 89.2093L205.697 83.6107C205.14 83.2813 204.507 83.104 203.873 83.104C203.24 83.104 202.607 83.2813 202.049 83.6107L192.625 89.2093C191.511 89.868 190.801 91.1093 190.801 92.452V103.649C190.801 104.992 191.485 106.208 192.625 106.892L202.049 112.491C202.607 112.82 203.24 112.997 203.873 112.997C204.507 112.997 205.14 112.82 205.697 112.491L215.121 106.892C216.236 106.233 216.945 104.992 216.945 103.649V92.4267C216.945 91.1093 216.261 89.868 215.121 89.2093ZM207.825 106.689L207.851 107.5C207.851 107.601 207.8 107.703 207.724 107.753L207.243 108.032C207.167 108.083 207.116 108.032 207.091 107.931V107.145C206.685 107.323 206.28 107.348 206.001 107.247C205.951 107.221 205.925 107.145 205.951 107.069L206.128 106.335C206.153 106.284 206.179 106.208 206.204 106.183C206.229 106.157 206.229 106.157 206.255 106.157C206.28 106.132 206.305 106.132 206.331 106.157C206.609 106.259 206.989 106.208 207.319 106.031C207.775 105.803 208.053 105.347 208.053 104.891C208.053 104.485 207.825 104.308 207.293 104.308C206.609 104.308 205.976 104.181 205.951 103.168C205.951 102.332 206.381 101.471 207.065 100.939V100.128C207.065 100.027 207.116 99.9253 207.192 99.8747L207.648 99.5707C207.724 99.52 207.775 99.5707 207.8 99.672V100.483C208.129 100.356 208.433 100.305 208.712 100.381C208.763 100.407 208.788 100.483 208.763 100.559L208.585 101.268C208.56 101.319 208.535 101.369 208.509 101.42C208.484 101.445 208.484 101.445 208.459 101.445C208.433 101.445 208.408 101.471 208.383 101.445C208.256 101.42 207.977 101.344 207.521 101.597C207.04 101.851 206.863 102.256 206.888 102.56C206.888 102.94 207.091 103.041 207.724 103.041C208.585 103.067 208.965 103.447 208.991 104.308C208.991 105.195 208.535 106.107 207.825 106.689ZM212.765 105.321C212.765 105.397 212.765 105.473 212.689 105.499L210.308 106.943C210.257 106.968 210.207 106.943 210.207 106.867V106.259C210.207 106.183 210.257 106.132 210.308 106.107L212.664 104.713C212.715 104.688 212.765 104.713 212.765 104.789V105.321ZM214.412 91.5653L205.495 97.0627C204.38 97.7213 203.569 98.4307 203.569 99.7733V110.768C203.569 111.579 203.899 112.085 204.38 112.237C204.228 112.263 204.051 112.288 203.873 112.288C203.341 112.288 202.835 112.136 202.379 111.883L192.955 106.284C192.043 105.727 191.46 104.713 191.46 103.624V92.4267C191.46 91.3373 192.043 90.2987 192.955 89.7667L202.379 84.168C202.835 83.8893 203.341 83.7627 203.873 83.7627C204.405 83.7627 204.912 83.9147 205.368 84.168L214.792 89.7667C215.577 90.2227 216.084 91.0333 216.236 91.92C215.932 91.2613 215.223 91.084 214.412 91.5653Z" fill="#808080" fill-opacity="0.12"/>
</svg>
